<svg width="23" height="30" xmlns="http://www.w3.org/2000/svg" xmlns:xlink="http://www.w3.org/1999/xlink" xml:space="preserve" overflow="hidden" viewBox="0 0 999 1265"><g transform="translate(-1104 -426)"><g><rect x="1307" y="508" width="672" height="1098" fill="#F2F2F2" fill-opacity="1" /><rect x="1285" y="533" width="626" height="1036" fill="#FFFFFF" fill-opacity="1" /><path d="M1182 434 2015 434 2015 1681 1182 1681ZM1286.13 538.125 1286.13 1576.87 1910.87 1576.87 1910.87 538.125Z" stroke="#7F7F7F" stroke-width="13.75" stroke-linecap="butt" stroke-linejoin="miter" stroke-miterlimit="8" stroke-opacity="1" fill="#7030A0" fill-rule="evenodd" fill-opacity="1" /><text fill="#2F5597" fill-opacity="1" font-family="BM DoHyeon OTF,BM DoHyeon OTF_MSFontService,sans-serif" font-style="normal" font-variant="normal" font-weight="400" font-stretch="normal" font-size="527" text-anchor="start" direction="ltr" writing-mode="lr-tb" unicode-bidi="normal" text-decoration="none" transform="matrix(1 0 0 1 1425.65 1041)">P</text><path d="M1421 1285.17C1421 1279.55 1425.55 1275 1431.17 1275L1846.83 1275C1852.45 1275 1857 1279.55 1857 1285.17L1857 1325.83C1857 1331.45 1852.45 1336 1846.83 1336L1431.17 1336C1425.55 1336 1421 1331.45 1421 1325.83Z" fill="#7030A0" fill-rule="evenodd" fill-opacity="1" /><path d="M1421 1373.33C1421 1367.63 1425.63 1363 1431.33 1363L1846.67 1363C1852.37 1363 1857 1367.63 1857 1373.33L1857 1414.67C1857 1420.37 1852.37 1425 1846.67 1425L1431.33 1425C1425.63 1425 1421 1420.37 1421 1414.67Z" fill="#7030A0" fill-rule="evenodd" fill-opacity="1" /><path d="M1421 1462.17C1421 1456.55 1425.55 1452 1431.17 1452L1846.83 1452C1852.45 1452 1857 1456.55 1857 1462.17L1857 1502.83C1857 1508.45 1852.45 1513 1846.83 1513L1431.17 1513C1425.55 1513 1421 1508.45 1421 1502.83Z" fill="#7030A0" fill-rule="evenodd" fill-opacity="1" /></g></g></svg>